<svg xmlns="http://www.w3.org/2000/svg" width="391.66" height="401.28" viewBox="0 0 391.66 401.28">
  <defs>
    <style>
      .cls-1 {
        fill: #ffc924;
        fill-rule: evenodd;
      }
    </style>
  </defs>
  <path id="Прямоугольник_скругл._углы_6_копия_9" data-name="Прямоугольник, скругл. углы 6 копия 9" class="cls-1" d="M1433.99,1068.7a2.629,2.629,0,0,1-.41.35l-10.02,8.41a2.454,2.454,0,1,1-3.56-3.38l4.82-4.05C1216.51,1071.21,1048,1240.41,1048,1449q0,4.515.11,9h-5c-0.06-2.99-.11-5.99-0.11-9,0-211.39,170.81-382.86,381.93-383.97l-6.01-4.06a2.469,2.469,0,0,1,3.39-3.59l10.98,7.43a2.42,2.42,0,0,1,.61.41A2.472,2.472,0,0,1,1433.99,1068.7Z" transform="translate(-1043 -1056.72)"/>
</svg>
